<?xml version="1.0" encoding="UTF-8"?>
<!DOCTYPE svg PUBLIC "-//W3C//DTD SVG 1.1//EN" "http://www.w3.org/Graphics/SVG/1.1/DTD/svg11.dtd">
<svg xmlns="http://www.w3.org/2000/svg" version="1.1" width="512px" height="512px" style="shape-rendering:geometricPrecision; text-rendering:geometricPrecision; image-rendering:optimizeQuality; fill-rule:evenodd; clip-rule:evenodd" xmlns:xlink="http://www.w3.org/1999/xlink">
<g><path style="opacity:0.965" fill="#000000" d="M 232.5,-0.5 C 247.833,-0.5 263.167,-0.5 278.5,-0.5C 378.272,12.4494 449.438,64.4494 492,155.5C 502.136,180.379 508.636,206.046 511.5,232.5C 511.5,247.833 511.5,263.167 511.5,278.5C 498.551,378.271 446.551,449.438 355.5,492C 330.622,502.136 304.955,508.636 278.5,511.5C 263.167,511.5 247.833,511.5 232.5,511.5C 132.727,498.549 61.5605,446.549 19,355.5C 8.86392,330.621 2.36392,304.954 -0.5,278.5C -0.5,263.167 -0.5,247.833 -0.5,232.5C 12.4486,132.729 64.4486,61.5622 155.5,19C 180.379,8.86392 206.046,2.36392 232.5,-0.5 Z M 254.5,31.5 C 340.223,34.9233 405.39,72.9233 450,145.5C 482.026,204.83 487.36,266.497 466,330.5C 459.995,346.176 452.662,361.176 444,375.5C 429.829,317.192 396.662,273.525 344.5,244.5C 370.101,208.425 374.601,169.759 358,128.5C 330.338,77.0879 287.504,56.2546 229.5,66C 181.149,79.5332 152.649,111.033 144,160.5C 140.279,191.624 147.779,219.624 166.5,244.5C 114.338,273.525 81.1714,317.192 67,375.5C 27.2392,309.017 21.5725,239.683 50,167.5C 83.9273,94.5847 140.427,50.418 219.5,35C 231.271,33.3357 242.938,32.1691 254.5,31.5 Z M 254.5,95.5 C 289.436,97.3675 314.269,114.034 329,145.5C 341.46,182.502 332.96,213.669 303.5,239C 271.5,261 239.5,261 207.5,239C 179.57,215.475 170.404,185.975 180,150.5C 193.448,116.697 218.282,98.3637 254.5,95.5 Z M 190.5,269.5 C 191.873,269.343 193.207,269.51 194.5,270C 221.375,286.758 250.375,291.758 281.5,285C 294.657,281.674 306.99,276.507 318.5,269.5C 373.813,295.349 405.647,338.682 414,399.5C 414.667,403.833 414.667,408.167 414,412.5C 356.197,468.084 287.697,488.584 208.5,474C 165.179,464.265 128.013,443.765 97,412.5C 98.4777,361.712 118.978,320.545 158.5,289C 168.73,281.721 179.397,275.221 190.5,269.5 Z"/></g>
</svg>
